<svg width="37" height="67" viewBox="0 0 37 67" fill="none" xmlns="http://www.w3.org/2000/svg">
<g clip-path="url(#clip0_1_190)">
<path fill-rule="evenodd" clip-rule="evenodd" d="M21.5325 37.7917C21.5325 39.0128 21.0474 40.1839 20.184 41.0473C19.3205 41.9108 18.1494 42.3958 16.9283 42.3958C15.7072 42.3958 14.5361 41.9108 13.6727 41.0473C12.8092 40.1839 12.3242 39.0128 12.3242 37.7917C12.3242 36.5706 12.8092 35.3995 13.6727 34.536C14.5361 33.6726 15.7072 33.1875 16.9283 33.1875C18.1494 33.1875 19.3205 33.6726 20.184 34.536C21.0474 35.3995 21.5325 36.5706 21.5325 37.7917ZM20.968 41.7654C19.9457 42.8034 18.5629 43.4077 17.1067 43.4529C15.6506 43.4982 14.233 42.9809 13.1482 42.0084C12.0634 41.0359 11.3949 39.6831 11.2813 38.2306C11.1678 36.7782 11.618 35.3379 12.5384 34.2087C13.4589 33.0794 14.7789 32.3481 16.2244 32.1665C17.6699 31.9849 19.1298 32.367 20.3009 33.2335C21.4721 34.0999 22.2646 35.3841 22.5139 36.8195C22.7631 38.2549 22.45 39.7311 21.6395 40.9416L25.4156 44.1143L24.7327 44.9274L20.968 41.7654Z" fill="#1D1D1D"/>
</g>
<defs>
<clipPath id="clip0_1_190">
<rect width="17" height="17" fill="white" transform="translate(9.845 30)"/>
</clipPath>
</defs>
</svg>
