<svg width="176" height="29" viewBox="0 0 176 29" fill="none" xmlns="http://www.w3.org/2000/svg">
<g clip-path="url(#clip0_1_182)">
<g clip-path="url(#clip1_1_182)">
<path d="M20.81 18.226L25.375 20.841C23.093 25.038 18.638 27.763 13.594 27.763C6.22997 27.763 0.154968 22.129 0.154968 14.213C0.154968 6.29699 6.22997 0.662994 13.594 0.662994C18.638 0.662994 23.094 3.38799 25.375 7.58599L20.81 10.2C19.484 7.47499 16.797 5.81899 13.594 5.81899C8.99097 5.81899 5.49397 9.24199 5.49397 14.213C5.49397 19.184 8.99097 22.608 13.594 22.608C16.797 22.608 19.484 20.951 20.81 18.226ZM49.86 27.1V16.054H36.973V27.1H31.819V1.32599H36.973V10.9H49.86V1.32599H55.015V27.1H49.86ZM79.758 16.422L75.081 5.56099L70.405 16.422H79.758ZM89.993 27.1H84.359L81.819 21.208H68.343L65.803 27.1H60.169L71.583 1.32599H78.579L89.993 27.1ZM113.741 27.1L99.933 6.81299V27.1H95.147V1.32599H101.959L113.557 18.41V1.32599H118.344V27.1H113.741ZM128.284 27.1V1.32599H146.694V6.11299H133.07V11.636H144.852V16.422H133.07V22.314H147.43V27.1H128.284ZM155.715 27.1V1.32599H160.869V21.946H174.491V27.1H155.715Z" fill="white"/>
</g>
</g>
<defs>
<clipPath id="clip0_1_182">
<rect width="175" height="28" fill="white" transform="translate(0.154968 0.5)"/>
</clipPath>
<clipPath id="clip1_1_182">
<rect width="175" height="28" fill="white" transform="translate(0.154968 0.5)"/>
</clipPath>
</defs>
</svg>
