<svg width="37" height="67" viewBox="0 0 37 67" fill="none" xmlns="http://www.w3.org/2000/svg">
<g clip-path="url(#clip0_1_196)">
<path fill-rule="evenodd" clip-rule="evenodd" d="M20.8242 34.9583C20.8242 35.2839 20.76 35.6063 20.6354 35.9071C20.5109 36.2079 20.3282 36.4812 20.098 36.7114C19.8678 36.9416 19.5945 37.1242 19.2937 37.2488C18.9929 37.3734 18.6706 37.4375 18.345 37.4375C18.0194 37.4375 17.697 37.3734 17.3963 37.2488C17.0955 37.1242 16.8222 36.9416 16.592 36.7114C16.3617 36.4812 16.1791 36.2079 16.0545 35.9071C15.93 35.6063 15.8658 35.2839 15.8658 34.9583C15.8658 34.3008 16.127 33.6702 16.592 33.2053C17.0569 32.7404 17.6875 32.4792 18.345 32.4792C19.0025 32.4792 19.6331 32.7404 20.098 33.2053C20.563 33.6702 20.8242 34.3008 20.8242 34.9583ZM21.8867 34.9583C21.8867 35.8976 21.5135 36.7985 20.8493 37.4627C20.1851 38.1269 19.2843 38.5 18.345 38.5C17.4057 38.5 16.5048 38.1269 15.8407 37.4627C15.1765 36.7985 14.8033 35.8976 14.8033 34.9583C14.8033 34.019 15.1765 33.1182 15.8407 32.454C16.5048 31.7898 17.4057 31.4167 18.345 31.4167C19.2843 31.4167 20.1851 31.7898 20.8493 32.454C21.5135 33.1182 21.8867 34.019 21.8867 34.9583ZM13.2549 44.8254C13.6111 43.7572 14.2944 42.8281 15.2079 42.1698C16.1214 41.5114 17.219 41.1571 18.345 41.1571C19.471 41.1571 20.5685 41.5114 21.4821 42.1698C22.3956 42.8281 23.0789 43.7572 23.4351 44.8254L23.6851 45.5741L24.6931 45.2384L24.443 44.489C24.0163 43.2092 23.1977 42.0961 22.1033 41.3074C21.0089 40.5187 19.694 40.0942 18.345 40.0942C16.996 40.0942 15.6811 40.5187 14.5867 41.3074C13.4922 42.0961 12.6737 43.2092 12.247 44.489L11.9976 45.2384L13.0056 45.5741L13.2549 44.8254Z" fill="#1D1D1D"/>
</g>
<defs>
<clipPath id="clip0_1_196">
<rect width="17" height="17" fill="white" transform="translate(9.845 30)"/>
</clipPath>
</defs>
</svg>
